<svg width="89" height="89" viewBox="0 0 89 89" fill="none" xmlns="http://www.w3.org/2000/svg">
<rect width="89" height="89" rx="44.5" fill="white"/>
<path d="M20 69C20 63.6588 24.3394 59.3289 29.6923 59.3289H45.8462C45.8462 64.6701 41.5068 69 36.1538 69H20Z" fill="#3900AA"/>
<path d="M62 20C62 25.3412 57.6606 29.6711 52.3077 29.6711H36.1538C36.1538 24.3299 40.4932 20 45.8462 20H62Z" fill="#3900AA"/>
<path d="M20 69C25.3529 69 29.6923 64.6701 29.6923 59.3289L29.6923 36.1184C24.3394 36.1184 20 40.4483 20 45.7895L20 69Z" fill="#5500FF"/>
<path d="M62 20C56.6471 20 52.3077 24.3299 52.3077 29.6711L52.3077 52.8816C57.6606 52.8816 62 48.5517 62 43.2105V20Z" fill="#5500FF"/>
<path d="M45.8921 49.059C47.1038 47.8499 47.7846 46.2099 47.7846 44.5C47.7846 42.7901 47.1038 41.1501 45.8921 39.941C44.6803 38.7319 43.0368 38.0526 41.3231 38.0526C39.6094 38.0526 37.9659 38.7319 36.7541 39.941L45.8921 49.059Z" fill="#3900AA"/>
<path d="M36.7541 39.941C35.5423 41.1501 34.8615 42.7901 34.8615 44.5C34.8615 46.2099 35.5423 47.8499 36.7541 49.059C37.9659 50.2681 39.6094 50.9474 41.3231 50.9474C43.0368 50.9474 44.6803 50.2681 45.8921 49.059L36.7541 39.941Z" fill="#5500FF"/>
</svg>
