<svg width="42" height="49" viewBox="0 0 42 49" fill="none" xmlns="http://www.w3.org/2000/svg">
<path d="M2.15647e-07 49C2.15647e-07 43.6588 4.33939 39.3289 9.69231 39.3289H25.8462C25.8462 44.6701 21.5068 49 16.1538 49H2.15647e-07Z" fill="#3900AA"/>
<path d="M42 0C42 5.34117 37.6606 9.67105 32.3077 9.67105H16.1538C16.1538 4.32988 20.4932 0 25.8462 0H42Z" fill="#3900AA"/>
<path d="M2.15647e-07 49C5.35291 49 9.69231 44.6701 9.69231 39.3289L9.69231 16.1184C4.3394 16.1184 2.33983e-07 20.4483 0 25.7895L2.15647e-07 49Z" fill="#5500FF"/>
<path d="M42 0C36.6471 -2.3347e-07 32.3077 4.32988 32.3077 9.67105L32.3077 32.8816C37.6606 32.8816 42 28.5517 42 23.2105V0Z" fill="#5500FF"/>
<path d="M25.8921 29.059C27.1038 27.8499 27.7846 26.2099 27.7846 24.5C27.7846 22.7901 27.1038 21.1501 25.8921 19.941C24.6803 18.7319 23.0368 18.0526 21.3231 18.0526C19.6094 18.0526 17.9659 18.7319 16.7541 19.941L25.8921 29.059Z" fill="#3900AA"/>
<path d="M16.7541 19.941C15.5423 21.1501 14.8615 22.7901 14.8615 24.5C14.8615 26.2099 15.5423 27.8499 16.7541 29.059C17.9659 30.2681 19.6094 30.9474 21.3231 30.9474C23.0368 30.9474 24.6803 30.2681 25.8921 29.059L16.7541 19.941Z" fill="#5500FF"/>
</svg>
